<?xml version="1.0" encoding="utf-8"?>
<!-- Generator: Adobe Illustrator 23.0.1, SVG Export Plug-In . SVG Version: 6.00 Build 0)  -->
<svg version="1.1" id="Layer_1" xmlns="http://www.w3.org/2000/svg" xmlns:xlink="http://www.w3.org/1999/xlink" x="0px" y="0px"
	 viewBox="0 0 1000 1000" style="enable-background:new 0 0 1000 1000;" xml:space="preserve">
<style type="text/css">
	.st0{fill-rule:evenodd;clip-rule:evenodd;fill:#1C1B1F;}
</style>
<path class="st0" d="M862.9,215.1l-304-180.4c-36-21.4-80.7-21.4-116.7,0L138.1,215.1C101.4,237,78.9,276.7,79,319.6v360.9
	c-0.2,42.7,22,82.4,58.6,104.5l304,180.4c36,21.4,80.7,21.4,116.7,0l304.1-180.4c36.6-22.1,58.8-61.7,58.6-104.5V319.6
	C921.3,277,899.3,237.3,862.9,215.1L862.9,215.1z M627.4,778.6v25.9c0,3.2-1.7,6.2-4.5,8l-15.4,8.8c-2.4,1.3-4.5,0-4.5-3.4v-25.5
	c-10.9,5.3-23.3,6.6-35,3.4c-1.9-1.3-2.6-3.7-1.7-6l5.5-23.5c0.5-2,1.5-3.8,3.1-5.1c0.4-0.4,0.9-0.8,1.5-1.1c0.8-0.3,1.6-0.3,2.4,0
	c10.7,2.9,22.2,1.4,31.9-4c14-6.8,23.1-20.8,23.8-36.4c0-13.2-7.2-18.7-24.7-18.8c-22.1,0-42.1-4.2-43-36.8
	c0.5-28.2,13.6-54.7,35.7-72.2v-26.2c0-3,1.7-6,4.5-8.1l14.9-9.4c2.4-1.3,4.5,0,4.5,3.5v26.2c9.1-4.1,19.3-5.4,29.1-3.5
	c2.1,1.2,2.9,3.9,1.9,6l-5.2,23.3c-0.5,1.8-1.4,3.4-2.6,4.7c-0.4,0.5-0.9,0.8-1.5,1.2c-0.6,0.4-1.5,0.2-2.2,0
	c-9.6-2.1-19.6-0.5-28,4.6c-12.5,5.4-20.8,17.6-21.2,31.2c0,11.9,6.3,15.5,27.3,15.9c28.1,0,40.2,12.7,40.6,41
	c-0.5,29.6-14,57.4-36.9,76.1L627.4,778.6z M786.7,735c0.4,2.2-0.5,4.5-2.3,5.8l-76.6,46.7c-0.7,0.6-1.8,0.7-2.6,0.2
	c-0.8-0.5-1.2-1.5-1-2.4v-19.9c0.1-2.2,1.5-4.1,3.5-4.9l75.7-45.3c0.7-0.6,1.8-0.7,2.6-0.2c0.8,0.5,1.2,1.5,1,2.4V735L786.7,735z
	 M839.8,291.2L552.1,468.9c-35.9,21.2-62.3,44.5-62.3,87.7v354.3c0,25.9,10.6,42.1,26.5,47.5c-5.3,1-10.6,1.5-15.9,1.6
	c-16.9,0-33.5-4.6-48-13.3l-304-180.4c-30.3-18.1-48.3-50.8-48.2-85.8V319.6c-0.2-35.1,17.9-67.7,48.2-86l304-180.4
	c29.5-17.4,66.1-17.4,95.5,0l304,180.4c25.1,15.2,42.1,40.6,46.7,69.2c-9.9-21.4-32.6-27.1-59-11.9h0.1L839.8,291.2z"/>
</svg>
