<?xml version="1.0" encoding="utf-8"?>
<!-- Generator: Adobe Illustrator 26.0.3, SVG Export Plug-In . SVG Version: 6.00 Build 0)  -->
<svg version="1.0" id="Layer_1" xmlns="http://www.w3.org/2000/svg" xmlns:xlink="http://www.w3.org/1999/xlink" x="0px" y="0px"
	 viewBox="0 0 883.9 527.9" style="enable-background:new 0 0 883.9 527.9;" xml:space="preserve">
<style type="text/css">
	.st0{fill:#20B4D5;}
	.st1{fill:#1B2838;}
</style>
<path class="st0" d="M284,229.5c6.4-19.6,2.5-58.8-9.8-73.3c-1.3-1.6-3.7-1.7-5.3-0.4c-0.3,0.2-0.5,0.5-0.7,0.9l-15.2,23.6
	c-3.8,4.7-10.5,5.8-15.6,2.5c-34.9-22.5-79.8-22.5-114.7,0c-5.1,3.3-11.8,2.2-15.6-2.5l-15.2-23.6c-1.1-1.8-3.4-2.3-5.2-1.2
	c-0.3,0.2-0.6,0.4-0.8,0.7c-12.3,14.5-16.2,53.6-9.8,73.3c2.1,6.5,2.6,13.4,1.4,20.1c-1.2,6.6-2.5,14.7-2.5,20.3
	c0,57.4,47,104,105,104s105-46.6,105-104c0-5.6-1.2-13.6-2.5-20.3C281.3,242.9,281.8,236,284,229.5z M179.9,350.7
	c-44.8,0-81.2-36.1-81.2-80.5c0-1.5,0-2.9,0.1-4.3c2.9-44.9,41.6-78.9,86.4-76c10.2,0.7,20.2,3.2,29.5,7.6
	c26.9,12.5,44.7,38.8,46.4,68.4c0.1,1.4,0.1,2.9,0.1,4.3C261.2,314.6,224.8,350.7,179.9,350.7z"/>
<path class="st0" d="M215.2,301.2l-20.8-35.7l-17.8-29.7c-0.4-0.7-1.2-1.1-2-1.1h-17c-0.8,0-1.6,0.5-2,1.2c-0.4,0.7-0.4,1.6,0,2.3
	l17,28.4L149.7,301c-0.5,0.7-0.5,1.6-0.1,2.4c0.4,0.7,1.2,1.2,2.1,1.2h17.1c0.8,0,1.6-0.4,2-1.1l12.3-19.1l11.1,19
	c0.4,0.7,1.2,1.1,2,1.1h16.9c0.8,0,1.6-0.4,2-1.1C215.6,302.8,215.6,301.9,215.2,301.2z"/>
<path class="st1" d="M381.7,210.5h21.7v117.6h-21.7v-50.1h-24.5v50.2h-21.7V210.5h21.7v51.1h24.5V210.5z"/>
<path class="st1" d="M470.2,328.1l-4.5-24.4h-26l-4.1,24.4h-21.6l23.9-117.6H467l25,117.6H470.2z M442.5,287.5h20.1l-10.4-56.3
	L442.5,287.5z"/>
<path class="st1" d="M540.2,306.6v-25.2c0-2-0.4-3.3-1.1-4s-2.1-1-4.1-1h-15.2c-12.9,0-19.4-6.2-19.4-18.6v-28.9
	c0-12.3,6.8-18.5,20.3-18.5h20.7c13.6,0,20.3,6.1,20.3,18.5v16.4h-21.8v-13.4c0-2-0.4-3.3-1.1-4s-2.1-1-4.2-1h-7.2
	c-2.1,0-3.6,0.3-4.3,1s-1.1,2-1.1,4v23.7c0,2,0.4,3.3,1.1,4s2.2,1,4.3,1h14.9c13.2,0,19.8,6.1,19.8,18.3v30.8
	c0,12.3-6.8,18.5-20.5,18.5h-20.3c-13.7,0-20.5-6.2-20.5-18.5v-16.2h21.6v13.2c0,2,0.4,3.3,1.1,4s2.2,1,4.3,1h7.2c2,0,3.4-0.3,4.1-1
	C539.9,310,540.2,308.6,540.2,306.6z"/>
<path class="st1" d="M619.8,210.5h21.6v99.2c0,12.3-6.8,18.5-20.5,18.5h-23c-13.7,0-20.5-6.2-20.5-18.5v-99.2h21.7v96.2
	c0,2,0.4,3.3,1.1,4s2.1,1,4.2,1h10c2.1,0,3.6-0.3,4.3-1s1.1-2,1.1-4L619.8,210.5z"/>
<path class="st1" d="M681,282.2v45.9h-21.6V210.5h43.7c13.7,0,20.5,6.1,20.5,18.5v34.9c0,10.2-4.6,16.2-13.8,17.9l19.8,46.4h-23.4
	l-18.1-45.9L681,282.2z M681,226.8v39.5h15.6c2,0,3.4-0.4,4.2-1s1.1-2,1.1-4v-29.5c0-2-0.4-3.3-1.1-4s-2.1-1-4.2-1L681,226.8z"/>
<path class="st1" d="M789.1,328.1l-4.5-24.4h-26l-4.2,24.4h-21.6l23.9-117.6h29.2L811,328.1H789.1z M761.4,287.5h20.1l-10.3-56.3
	L761.4,287.5z"/>
</svg>
